<?xml version="1.0" encoding="UTF-8" standalone="no"?>
<!--?xml version="1.0" encoding="utf-8"?-->

<!-- Generator: Adobe Illustrator 18.1.1, SVG Export Plug-In . SVG Version: 6.00 Build 0)  -->

<svg
   version="1.1"
   id="_x32_"
   x="0px"
   y="0px"
   viewBox="0 0 512 512"
   style="width: 64px; height: 64px; opacity: 1;"
   xml:space="preserve"
   sodipodi:docname="extract.svg"
   inkscape:version="1.1.2 (b8e25be833, 2022-02-05)"
   xmlns:inkscape="http://www.inkscape.org/namespaces/inkscape"
   xmlns:sodipodi="http://sodipodi.sourceforge.net/DTD/sodipodi-0.dtd"
   xmlns="http://www.w3.org/2000/svg"
   xmlns:svg="http://www.w3.org/2000/svg"><defs
   id="defs11" /><sodipodi:namedview
   id="namedview9"
   pagecolor="#ffffff"
   bordercolor="#666666"
   borderopacity="1.0"
   inkscape:pageshadow="2"
   inkscape:pageopacity="0.0"
   inkscape:pagecheckerboard="0"
   showgrid="false"
   inkscape:zoom="0.84472656"
   inkscape:cx="27.227746"
   inkscape:cy="333.24393"
   inkscape:window-width="1920"
   inkscape:window-height="1054"
   inkscape:window-x="-9"
   inkscape:window-y="-9"
   inkscape:window-maximized="1"
   inkscape:current-layer="_x32_" />
<style
   type="text/css"
   id="style2">
	.st0{fill:#4B4B4B;}
</style>
<g
   id="g6"
   style="fill:#ffffff;fill-opacity:1;stroke:#ffffff;stroke-opacity:1">
	<path
   class="st0"
   d="M 381.883,0 H 160.579 l -5.185,5.129 -101.177,101.177 -5.158,5.214 v 319.5 c 0,44.656 36.324,80.98 80.98,80.98 h 251.844 c 44.699,0 81.058,-36.324 81.058,-80.98 V 80.987 C 462.941,36.331 426.582,0 381.883,0 Z M 209.71,63.978 h 21.635 v 7.915 c 0,3.656 1.049,7.298 3.441,10.164 2.37,2.88 6.184,4.712 10.552,4.668 l 1.049,-0.029 c 4.374,-0.208 7.678,-2.176 9.603,-4.382 1.932,-2.154 2.816,-4.468 3.232,-5.143 0.775,-1.465 1.314,-2.766 2.255,-3.807 0.948,-0.984 1.968,-1.767 4.583,-1.968 l 0.603,-0.022 c 2.506,0.043 3.85,0.826 4.92,2.054 1.049,1.236 1.724,3.182 1.724,5.452 v 23.158 c 0,2.27 -0.675,4.216 -1.724,5.452 -1.077,1.221 -2.42,2.011 -4.934,2.047 l -0.603,-0.014 c -2.6,-0.202 -3.613,-0.992 -4.568,-1.976 -0.941,-1.034 -1.48,-2.342 -2.262,-3.792 -0.41,-0.675 -1.293,-2.996 -3.225,-5.15 -1.925,-2.205 -5.229,-4.181 -9.61,-4.382 h 0.021 l -1.063,-0.036 c -4.368,-0.036 -8.181,1.795 -10.552,4.676 -2.392,2.866 -3.441,6.501 -3.441,10.164 v 7.915 H 209.71 Z m 0,60.321 h 21.635 v 7.908 c 0,3.656 1.049,7.298 3.441,10.164 2.37,2.873 6.184,4.712 10.552,4.668 l 1.049,-0.028 c 4.367,-0.201 7.678,-2.169 9.603,-4.382 1.94,-2.154 2.823,-4.475 3.232,-5.157 0.775,-1.451 1.314,-2.752 2.255,-3.786 0.956,-0.984 1.968,-1.774 4.583,-1.975 l 0.588,-0.014 c 2.514,0.036 3.858,0.826 4.934,2.047 1.049,1.243 1.724,3.182 1.724,5.452 v 23.158 c 0,2.27 -0.675,4.216 -1.724,5.452 -1.07,1.221 -2.42,2.011 -4.92,2.047 l -0.611,-0.014 c -2.607,-0.202 -3.628,-0.984 -4.576,-1.968 -0.941,-1.042 -1.48,-2.342 -2.255,-3.8 -0.417,-0.683 -1.3,-2.996 -3.232,-5.15 -1.925,-2.205 -5.229,-4.181 -9.603,-4.389 l -1.035,-0.028 c -4.374,-0.044 -8.195,1.789 -10.566,4.669 -2.392,2.866 -3.441,6.515 -3.441,10.178 v 7.908 H 209.71 Z m 0,60.314 h 21.635 v 7.902 c 0,3.663 1.056,7.312 3.455,10.178 2.37,2.88 6.198,4.712 10.573,4.676 l 0.998,-0.029 c 4.389,-0.208 7.7,-2.191 9.625,-4.396 1.925,-2.154 2.816,-4.475 3.218,-5.143 0.782,-1.458 1.322,-2.766 2.262,-3.807 0.956,-0.984 1.968,-1.767 4.576,-1.968 l 0.596,-0.015 c 2.514,0.036 3.858,0.826 4.934,2.047 1.049,1.236 1.724,3.175 1.724,5.438 v 23.186 c 0,2.256 -0.668,4.194 -1.724,5.43 -1.07,1.228 -2.413,2.011 -4.912,2.047 l -0.61,-0.014 c -2.615,-0.202 -3.635,-0.984 -4.583,-1.968 -0.941,-1.034 -1.48,-2.334 -2.255,-3.792 -0.41,-0.683 -1.3,-3.002 -3.232,-5.158 -1.925,-2.205 -5.229,-4.181 -9.603,-4.389 l -1.035,-0.029 c -4.374,-0.043 -8.195,1.796 -10.566,4.676 -2.392,2.866 -3.441,6.514 -3.441,10.178 v 7.902 H 209.71 Z m 0,60.308 h 21.635 v 7.908 c 0,3.663 1.049,7.304 3.441,10.177 2.37,2.88 6.192,4.719 10.566,4.677 l 1.028,-0.029 c 4.382,-0.208 7.686,-2.184 9.61,-4.389 1.932,-2.155 2.823,-4.475 3.232,-5.158 0.775,-1.458 1.314,-2.765 2.255,-3.8 0.948,-0.984 1.968,-1.767 4.583,-1.968 h 0.021 l 0.582,-0.021 c 2.499,0.043 3.85,0.826 4.92,2.054 1.049,1.236 1.724,3.182 1.724,5.438 v 23.178 c 0,2.256 -0.675,4.196 -1.724,5.438 -1.077,1.221 -2.427,2.011 -4.934,2.047 l -0.603,-0.014 c -2.6,-0.202 -3.613,-0.984 -4.568,-1.968 -0.941,-1.042 -1.48,-2.348 -2.255,-3.807 -0.41,-0.668 -1.3,-2.988 -3.225,-5.143 -1.925,-2.205 -5.236,-4.188 -9.618,-4.389 l -1.013,-0.029 c -4.382,-0.044 -8.202,1.795 -10.573,4.676 -2.392,2.866 -3.448,6.508 -3.448,10.172 v 7.908 H 209.71 Z m 0,60.314 h 21.635 v 7.915 c 0,3.656 1.049,7.298 3.441,10.164 2.37,2.88 6.184,4.712 10.552,4.668 l 1.049,-0.029 c 4.374,-0.208 7.678,-2.176 9.603,-4.382 1.932,-2.155 2.816,-4.468 3.232,-5.143 0.775,-1.465 1.314,-2.766 2.255,-3.807 0.948,-0.984 1.968,-1.766 4.583,-1.968 l 0.603,-0.021 c 2.506,0.043 3.85,0.826 4.92,2.054 1.049,1.236 1.724,3.182 1.724,5.452 v 23.158 c 0,2.27 -0.675,4.209 -1.724,5.452 -1.077,1.221 -2.427,2.011 -4.934,2.047 l -0.603,-0.015 c -2.6,-0.201 -3.613,-0.991 -4.568,-1.975 -0.941,-1.034 -1.48,-2.342 -2.262,-3.792 -0.41,-0.675 -1.293,-2.996 -3.225,-5.15 -1.925,-2.205 -5.229,-4.181 -9.61,-4.382 h 0.021 l -1.063,-0.036 c -4.368,-0.036 -8.181,1.795 -10.552,4.676 -2.392,2.866 -3.441,6.501 -3.441,10.164 V 358.2 H 209.71 Z m 0,60.321 h 21.635 v 7.901 c 0,3.664 1.049,7.305 3.448,10.171 2.371,2.873 6.184,4.712 10.558,4.668 l 1.028,-0.028 c 4.382,-0.201 7.686,-2.176 9.61,-4.382 1.932,-2.155 2.816,-4.475 3.232,-5.158 0.775,-1.45 1.314,-2.758 2.255,-3.792 0.956,-0.984 1.968,-1.767 4.576,-1.968 l 0.596,-0.014 c 2.514,0.036 3.858,0.826 4.934,2.047 1.049,1.236 1.724,3.182 1.724,5.444 v 23.165 c 0,2.269 -0.675,4.209 -1.724,5.444 -1.07,1.221 -2.413,2.011 -4.92,2.047 l -0.618,-0.014 c -2.6,-0.201 -3.62,-0.984 -4.568,-1.976 -0.941,-1.034 -1.48,-2.334 -2.255,-3.792 -0.417,-0.682 -1.3,-3.002 -3.232,-5.15 -1.925,-2.205 -5.229,-4.181 -9.61,-4.382 l -1.042,-0.036 c -4.368,-0.036 -8.181,1.796 -10.552,4.676 -2.392,2.866 -3.441,6.5 -3.441,10.164 v 7.915 H 209.71 Z M 195,493.978 h -64.961 c -34.714,0 -62.958,-28.244 -62.958,-62.958 V 111.507 h 65.386 c 15.493,0 28.099,-12.606 28.099,-28.099 V 18.022 H 195 Z m 36.345,-23.064 v 23.065 H 209.71 v -68.116 h 21.635 v 7.908 c 0,3.664 1.056,7.305 3.448,10.172 2.377,2.88 6.192,4.712 10.573,4.676 l 0.998,-0.028 c 4.396,-0.202 7.708,-2.184 9.632,-4.389 1.925,-2.155 2.816,-4.475 3.218,-5.143 0.782,-1.459 1.322,-2.766 2.262,-3.807 0.956,-0.984 1.968,-1.767 4.576,-1.968 l 0.596,-0.014 c 2.507,0.036 3.858,0.826 4.934,2.047 1.049,1.236 1.724,3.174 1.724,5.438 v 23.178 c 0,2.256 -0.675,4.202 -1.724,5.438 -1.07,1.221 -2.42,2.011 -4.92,2.047 l -0.611,-0.014 c -2.607,-0.202 -3.628,-0.984 -4.576,-1.968 -0.941,-1.041 -1.48,-2.342 -2.255,-3.8 -0.41,-0.682 -1.3,-2.996 -3.225,-5.158 -1.925,-2.205 -5.236,-4.18 -9.61,-4.389 l -1.02,-0.028 c -4.382,-0.043 -8.202,1.796 -10.573,4.676 -2.398,2.865 -3.447,6.514 -3.447,10.177 z m 70.952,23.064 H 238.7 v -23.065 c -0.007,-2.269 0.675,-4.208 1.724,-5.452 1.078,-1.221 2.428,-2.011 4.942,-2.047 l 0.596,0.014 c 2.601,0.201 3.614,0.984 4.568,1.975 0.942,1.034 1.48,2.342 2.256,3.8 0.409,0.675 1.293,2.995 3.232,5.15 1.925,2.205 5.236,4.181 9.611,4.389 l 1.034,0.029 c 4.367,0.044 8.188,-1.795 10.558,-4.676 2.385,-2.866 3.433,-6.508 3.44,-10.164 v -7.548 h 21.635 v 37.595 z m 0,-44.95 h -21.635 v -8.275 c -0.007,-3.664 -1.055,-7.305 -3.447,-10.172 -2.378,-2.88 -6.192,-4.712 -10.566,-4.668 l -1.013,0.029 c -4.382,0.201 -7.693,2.176 -9.618,4.389 -1.939,2.154 -2.823,4.475 -3.232,5.15 -0.776,1.458 -1.314,2.758 -2.256,3.8 -0.955,0.984 -1.968,1.767 -4.568,1.968 l -0.596,0.014 c -2.514,-0.036 -3.864,-0.826 -4.942,-2.047 -1.049,-1.243 -1.731,-3.182 -1.724,-5.445 v -23.178 c -0.007,-2.262 0.668,-4.202 1.717,-5.438 1.077,-1.221 2.414,-2.004 4.92,-2.047 l 0.61,0.022 c 2.615,0.194 3.634,0.984 4.582,1.961 0.942,1.035 1.48,2.342 2.256,3.8 0.409,0.675 1.293,2.996 3.232,5.15 1.925,2.205 5.236,4.18 9.611,4.389 l 1.034,0.028 c 4.367,0.036 8.188,-1.795 10.558,-4.676 2.392,-2.866 3.433,-6.508 3.44,-10.171 v -7.908 h 21.635 v 53.325 z m 0,-60.68 h -21.635 v -7.902 c -0.007,-3.663 -1.055,-7.304 -3.447,-10.178 -2.37,-2.874 -6.192,-4.712 -10.566,-4.669 l -1.027,0.028 c -4.368,0.201 -7.679,2.176 -9.604,4.382 -1.932,2.155 -2.823,4.475 -3.232,5.15 -0.776,1.465 -1.314,2.766 -2.256,3.8 -0.948,0.984 -1.968,1.766 -4.568,1.968 l -0.61,0.014 c -2.506,-0.036 -3.857,-0.826 -4.927,-2.047 -1.056,-1.236 -1.731,-3.174 -1.724,-5.438 v -23.171 c -0.007,-2.263 0.668,-4.202 1.717,-5.438 1.077,-1.221 2.42,-2.004 4.92,-2.047 l 0.603,0.021 h 0.021 c 2.601,0.201 3.62,0.984 4.568,1.968 0.942,1.027 1.48,2.334 2.256,3.792 0.409,0.675 1.3,2.995 3.232,5.15 1.925,2.205 5.229,4.181 9.611,4.389 l 1.02,0.029 c 4.375,0.036 8.196,-1.796 10.566,-4.676 2.392,-2.866 3.44,-6.514 3.447,-10.178 v -7.902 h 21.635 z m 0,-60.308 h -21.635 v -7.901 c -0.007,-3.67 -1.049,-7.312 -3.44,-10.178 -2.37,-2.887 -6.192,-4.719 -10.558,-4.683 l -1.049,0.036 c -4.36,0.208 -7.671,2.184 -9.596,4.389 -1.939,2.154 -2.823,4.475 -3.232,5.157 -0.776,1.451 -1.314,2.758 -2.256,3.786 -0.948,0.984 -1.968,1.767 -4.568,1.968 l -0.624,0.014 c -2.506,-0.036 -3.843,-0.819 -4.92,-2.04 -1.048,-1.236 -1.724,-3.175 -1.717,-5.438 v -23.178 c -0.007,-2.263 0.675,-4.202 1.724,-5.445 1.078,-1.221 2.428,-2.011 4.942,-2.047 l 0.582,0.015 c 2.615,0.201 3.628,0.983 4.582,1.967 0.942,1.035 1.48,2.342 2.263,3.8 0.402,0.675 1.286,2.996 3.225,5.15 1.925,2.205 5.236,4.188 9.618,4.389 l 1.013,0.029 c 4.375,0.036 8.196,-1.796 10.566,-4.676 2.392,-2.859 3.44,-6.501 3.447,-10.164 v -7.901 h 21.635 v 52.951 z m 0,-60.307 h -21.635 v -7.922 c -0.007,-3.664 -1.055,-7.298 -3.44,-10.164 -2.37,-2.88 -6.192,-4.719 -10.558,-4.683 L 265.607,245 h 0.022 c -4.375,0.208 -7.686,2.184 -9.611,4.389 -1.939,2.154 -2.823,4.475 -3.232,5.158 -0.776,1.458 -1.314,2.765 -2.256,3.8 -0.948,0.983 -1.968,1.767 -4.575,1.968 l -0.604,0.015 c -2.506,-0.036 -3.857,-0.826 -4.927,-2.047 -1.049,-1.243 -1.731,-3.182 -1.724,-5.452 v -23.165 c -0.007,-2.27 0.675,-4.216 1.724,-5.452 1.07,-1.221 2.421,-2.011 4.927,-2.047 l 0.589,0.015 c 2.622,0.201 3.642,0.984 4.59,1.968 0.942,1.035 1.48,2.342 2.256,3.8 0.409,0.682 1.293,3.002 3.232,5.158 1.925,2.205 5.236,4.18 9.618,4.381 l 1.035,0.029 c 4.374,0.044 8.181,-1.795 10.551,-4.676 2.392,-2.859 3.433,-6.501 3.44,-10.157 v -7.922 h 21.635 z m 0,-60.328 h -21.635 v -7.908 c -0.007,-3.664 -1.055,-7.305 -3.447,-10.171 -2.37,-2.88 -6.192,-4.712 -10.566,-4.669 l -1.027,0.029 c -4.368,0.201 -7.679,2.176 -9.604,4.389 -1.939,2.155 -2.823,4.475 -3.232,5.15 -0.776,1.458 -1.314,2.765 -2.256,3.8 -0.955,0.991 -1.968,1.774 -4.575,1.975 l -0.582,0.015 c -2.514,-0.036 -3.872,-0.826 -4.949,-2.054 -1.049,-1.236 -1.731,-3.182 -1.724,-5.444 V 169.35 c -0.007,-2.269 0.675,-4.209 1.724,-5.444 1.07,-1.228 2.421,-2.011 4.927,-2.054 l 0.589,0.022 c 2.622,0.202 3.642,0.984 4.59,1.968 0.942,1.034 1.48,2.342 2.256,3.8 0.409,0.675 1.293,2.995 3.232,5.15 1.925,2.205 5.236,4.181 9.611,4.389 l 1.034,0.029 c 4.367,0.043 8.188,-1.796 10.558,-4.676 2.392,-2.866 3.433,-6.515 3.44,-10.178 v -7.908 h 21.635 v 52.957 z m 0,-60.315 h -21.635 v -7.894 c -0.007,-3.663 -1.055,-7.312 -3.447,-10.178 -2.37,-2.88 -6.192,-4.719 -10.566,-4.676 l -1.034,0.028 c -4.367,0.208 -7.671,2.184 -9.596,4.389 -1.932,2.155 -2.823,4.475 -3.225,5.143 -0.783,1.465 -1.322,2.773 -2.263,3.807 -0.948,0.984 -1.961,1.767 -4.568,1.961 l -0.624,0.014 c -2.506,-0.035 -3.843,-0.818 -4.92,-2.04 -1.048,-1.236 -1.724,-3.174 -1.717,-5.438 v -23.178 c -0.007,-2.262 0.668,-4.202 1.717,-5.438 1.077,-1.221 2.42,-2.004 4.92,-2.047 l 0.603,0.021 h 0.021 c 2.601,0.202 3.62,0.984 4.568,1.968 0.942,1.028 1.48,2.334 2.256,3.792 0.409,0.675 1.3,2.996 3.232,5.15 1.925,2.205 5.229,4.181 9.611,4.389 l 1.02,0.029 c 4.375,0.036 8.196,-1.789 10.566,-4.676 2.392,-2.866 3.44,-6.508 3.447,-10.178 v -7.894 h 21.635 v 52.946 z m 0,-60.3 h -21.635 v -7.908 c -0.007,-3.67 -1.049,-7.312 -3.44,-10.178 -2.37,-2.888 -6.192,-4.72 -10.558,-4.684 l -1.049,0.036 c -4.36,0.208 -7.671,2.184 -9.596,4.389 -1.939,2.155 -2.823,4.475 -3.232,5.157 -0.776,1.451 -1.314,2.758 -2.256,3.785 -0.948,0.984 -1.968,1.767 -4.568,1.968 l -0.624,0.014 c -2.506,-0.036 -3.843,-0.819 -4.92,-2.04 -1.048,-1.236 -1.724,-3.175 -1.717,-5.438 V 48.722 c -0.007,-2.263 0.675,-4.202 1.731,-5.445 1.078,-1.228 2.428,-2.018 4.949,-2.054 l 0.568,0.015 c 2.615,0.201 3.628,0.984 4.582,1.975 0.942,1.035 1.48,2.342 2.256,3.8 0.409,0.675 1.293,2.996 3.232,5.15 1.925,2.205 5.236,4.181 9.618,4.382 l 1.028,0.029 c 4.367,0.036 8.188,-1.796 10.552,-4.676 2.392,-2.859 3.44,-6.501 3.447,-10.157 V 18.611 H 273.31 V 41.74 c 0,2.256 -0.668,4.194 -1.724,5.43 -1.07,1.221 -2.42,2.012 -4.92,2.047 l -0.611,-0.014 c -2.607,-0.194 -3.62,-0.977 -4.576,-1.961 -0.941,-1.042 -1.48,-2.349 -2.255,-3.807 -0.41,-0.675 -1.3,-2.988 -3.225,-5.15 -1.925,-2.205 -5.236,-4.181 -9.61,-4.389 l -1.006,-0.029 c -4.382,-0.043 -8.21,1.796 -10.58,4.676 -2.399,2.866 -3.455,6.514 -3.455,10.178 v 7.901 H 209.71 v -38.6 h 92.587 z m 142.622,344.23 c 0,34.714 -28.279,62.958 -63.037,62.958 H 317.007 V 18.022 h 64.875 c 34.758,0 63.037,28.244 63.037,62.965 z"
   style="fill:#ffffff;fill-opacity:1;stroke:#ffffff;stroke-opacity:1"
   id="path4" />
</g>
<rect
   style="opacity:1;fill:#ffffff;fill-opacity:1;stroke:#ffffff;stroke-width:2.12642;stroke-linejoin:round;paint-order:markers stroke fill;stroke-opacity:1"
   id="rect970"
   width="506.10461"
   height="42.351234"
   x="-72.655602"
   y="300.88913"
   transform="rotate(-15)" /></svg>
